<?xml version="1.0" encoding="iso-8859-1"?>
<!-- Generator: Adobe Illustrator 22.1.0, SVG Export Plug-In . SVG Version: 6.00 Build 0)  -->
<svg xmlns="http://www.w3.org/2000/svg" xmlns:xlink="http://www.w3.org/1999/xlink" version="1.1" id="Layer_1_1_" x="0px" y="0px" viewBox="0 0 64 64" style="enable-background:new 0 0 64 64;" xml:space="preserve" width="512" height="512">
<g>
	<g>
		<path style="fill:#F0BC5E;" d="M32,32c-8.284,0-15,6.716-15,15c0,8.284,6.716,15,15,15s15-6.716,15-15C47,38.716,40.284,32,32,32z     M32,58c-6.075,0-11-4.925-11-11s4.925-11,11-11s11,4.925,11,11S38.075,58,32,58z"/>
	</g>
	<g>
		<rect x="46" y="13" style="fill:#F0BC5E;" width="8" height="2"/>
	</g>
	<g>
		<rect x="10" y="13" style="fill:#F0BC5E;" width="8" height="2"/>
	</g>
	<g>
		<polygon style="fill:#F0BC5E;" points="12,50 12,35 4,35 4,50 1,50 8,62.06 15,50   "/>
	</g>
	<g>
		<polygon style="fill:#F0BC5E;" points="56,31.94 49,44 52,44 52,59 60,59 60,44 63,44   "/>
	</g>
	<g>
		<path d="M32,31c-8.822,0-16,7.178-16,16s7.178,16,16,16s16-7.178,16-16S40.822,31,32,31z M32,61c-7.382,0-13.433-5.747-13.949-13    H21v-2h-2.949c0.221-3.108,1.455-5.934,3.381-8.154l2.083,2.083l1.414-1.414l-2.083-2.083c2.22-1.926,5.047-3.16,8.154-3.381V36h2    v-2.949c3.108,0.221,5.934,1.455,8.154,3.381l-2.083,2.083l1.414,1.414l2.083-2.083c1.926,2.22,3.16,5.047,3.381,8.154H43v2h2.949    C45.433,55.253,39.382,61,32,61z"/>
		<path d="M35,43.586l-3-3l-3,3v8.784c-0.64,0.729-1,1.664-1,2.63c0,2.206,1.794,4,4,4s4-1.794,4-4c0-0.966-0.36-1.901-1-2.63    V43.586z M32,57c-1.103,0-2-0.897-2-2c0-0.564,0.238-1.09,0.67-1.479L31,53.223v-8.809l1-1l1,1v8.809l0.33,0.298    C33.762,53.91,34,54.436,34,55C34,56.103,33.103,57,32,57z"/>
		<rect x="53" y="13" width="2" height="2"/>
		<rect x="49" y="13" width="2" height="2"/>
		<rect x="45" y="13" width="2" height="2"/>
		<rect x="9" y="13" width="2" height="2"/>
		<rect x="13" y="13" width="2" height="2"/>
		<rect x="17" y="13" width="2" height="2"/>
		<path d="M50.021,1c-2.572,0-5.062,0.754-7.199,2.18L32,10.395L21.178,3.18C19.04,1.754,16.55,1,13.979,1C6.822,1,1,6.842,1,14.021    C1,21.178,6.822,27,13.979,27c2.572,0,5.062-0.754,7.199-2.18L32,17.605l10.822,7.215C44.96,26.246,47.45,27,50.021,27    C57.178,27,63,21.158,63,13.979C63,6.822,57.178,1,50.021,1z M50.021,25c-2.176,0-4.281-0.638-6.09-1.844l-10.128-6.753    l1.802-1.201l9.435,6.29C46.52,22.479,48.242,23,50.021,23C54.972,23,59,18.953,59,13.979C59,9.027,54.972,5,50.021,5    c-1.78,0-3.502,0.521-4.98,1.508L20.068,23.156C18.26,24.362,16.154,25,13.979,25C7.925,25,3,20.075,3,14.021    C3,7.944,7.925,3,13.979,3c2.176,0,4.281,0.638,6.09,1.844l10.128,6.753l-1.802,1.201l-9.435-6.29C17.48,5.521,15.758,5,13.979,5    C9.028,5,5,9.047,5,14.021C5,18.973,9.028,23,13.979,23c1.78,0,3.502-0.521,4.98-1.508L43.932,4.844    C45.74,3.638,47.846,3,50.021,3C56.075,3,61,7.925,61,13.979C61,20.056,56.075,25,50.021,25z M37.408,14l8.743-5.828    C47.3,7.405,48.638,7,50.021,7C53.87,7,57,10.131,57,13.979C57,17.851,53.87,21,50.021,21c-1.383,0-2.722-0.405-3.871-1.172    L37.408,14z M26.592,14l-8.743,5.828C16.7,20.595,15.362,21,13.979,21C10.13,21,7,17.869,7,14.021C7,10.149,10.13,7,13.979,7    c1.383,0,2.722,0.405,3.871,1.172L26.592,14z"/>
	</g>
</g>
</svg>
