<?xml version="1.0" encoding="iso-8859-1"?>
<!-- Generator: Adobe Illustrator 22.1.0, SVG Export Plug-In . SVG Version: 6.00 Build 0)  -->
<svg xmlns="http://www.w3.org/2000/svg" xmlns:xlink="http://www.w3.org/1999/xlink" version="1.1" id="Layer_1_1_" x="0px" y="0px" viewBox="0 0 64 64" style="enable-background:new 0 0 64 64;" xml:space="preserve" width="512" height="512">
<g>
	<polygon style="fill:#F0BC5E;" points="19,6 13,6 13,13 5,13 5,43 16,43 16,26 19,26  "/>
	<path d="M20,60v-4c0-0.551,0.448-1,1-1h19v-2H24v-2h14v-2H21c-0.552,0-1-0.449-1-1v-4c0-0.551,0.448-1,1-1h17v-2H24v-2h14v-2H21   c-0.552,0-1-0.449-1-1v-4c0-0.551,0.448-1,1-1h24c0.552,0,1,0.449,1,1v2h2v-2c0-1.654-1.346-3-3-3h-2V1H9.586L1,9.586V47h17v1   c0,1.654,1.346,3,3,3h1v2h-1c-1.654,0-3,1.346-3,3v4c0,1.654,1.346,3,3,3h29v-2H21C20.448,61,20,60.551,20,60z M9,4.414V9H4.414   L9,4.414z M3,45V11h8V3h30v26H21c-1.654,0-3,1.346-3,3v4c0,1.654,1.346,3,3,3h1v2h-1c-1.654,0-3,1.346-3,3v1H3z"/>
	<path style="fill:#F0BC5E;" d="M50,63.03l-0.242-0.061C42.246,61.093,37,54.374,37,46.631V35h3.343c3.381,0,6.56-1.316,8.95-3.707   L50,30.586l0.707,0.707C53.098,33.684,56.276,35,59.657,35H63v11.631c0,7.743-5.246,14.462-12.758,16.339L50,63.03z"/>
	<rect x="13" y="5" width="6" height="2"/>
	<rect x="13" y="9" width="6" height="2"/>
	<path d="M53.107,38.083c-1.202-0.956-2.768-1.301-4.294-0.945c-1.788,0.416-3.226,1.837-3.662,3.621   c-0.487,1.995,0.25,4.022,1.849,5.222V54c0,1.654,1.346,3,3,3s3-1.346,3-3v-8.021c1.246-0.939,2-2.416,2-3.979   C55,40.466,54.311,39.038,53.107,38.083z M51.497,44.581L51,44.87V54c0,0.551-0.448,1-1,1s-1-0.449-1-1v-9.129l-0.497-0.29   c-1.185-0.689-1.737-2.003-1.408-3.347c0.255-1.042,1.127-1.905,2.172-2.148C49.516,39.028,49.763,39,50.006,39   c0.677,0,1.318,0.222,1.858,0.65C52.586,40.223,53,41.08,53,42C53,43.068,52.438,44.033,51.497,44.581z"/>
	<rect x="9" y="13" width="10" height="2"/>
	<rect x="5" y="17" width="14" height="2"/>
	<rect x="5" y="21" width="14" height="2"/>
	<rect x="5" y="25" width="30" height="2"/>
	<rect x="5" y="29" width="11" height="2"/>
	<rect x="5" y="33" width="11" height="2"/>
	<rect x="5" y="37" width="11" height="2"/>
	<rect x="5" y="41" width="11" height="2"/>
	<rect x="37" y="25" width="2" height="2"/>
	<rect x="5" y="13" width="2" height="2"/>
	<path d="M30,23c4.963,0,9-4.038,9-9s-4.037-9-9-9s-9,4.038-9,9S25.037,23,30,23z M30,7c3.859,0,7,3.14,7,7s-3.141,7-7,7   s-7-3.14-7-7S26.141,7,30,7z"/>
</g>
</svg>
