<?xml version="1.0" encoding="utf-8"?>
<svg id="master-artboard" viewBox="0 0 1400 980" version="1.1" xmlns="http://www.w3.org/2000/svg" x="0px" y="0px" style="enable-background:new 0 0 1400 980;" width="1400px" height="980px"><g transform="matrix(1.9758064516129032, 0, 0, 1.9758064516129032, 257.41934557445205, -2.842170943040401e-14)"><linearGradient id="a" gradientUnits="userSpaceOnUse" x1="224" x2="224" y1="496" y2="0"><stop offset="0" stop-color="#9f2fff"/><stop offset="1" stop-color="#0bb1d3"/></linearGradient><path d="m248 0h-208c-22.054688 0-40 17.945312-40 40v416c0 22.054688 17.945312 40 40 40h208c22.054688 0 40-17.945312 40-40v-100.769531c1.222656.371093 2.441406.777343 3.671875 1.097656l6.558594 19.671875h43.53125l6.558593-19.671875c9.878907-2.574219 19.335938-6.503906 28.207032-11.726563l18.585937 9.292969 30.78125-30.78125-9.292969-18.585937c5.207032-8.871094 9.140626-18.328125 11.726563-28.199219l19.671875-6.558594v-43.53125l-19.664062-6.558593c-2.582032-9.871094-6.511719-19.328126-11.726563-28.199219l9.292969-18.585938-30.78125-30.78125-18.585938 9.292969c-8.871094-5.214844-18.328125-9.148438-28.207031-11.726562l-6.558594-19.679688h-43.53125l-6.558593 19.671875c-1.238282.320313-2.449219.726563-3.671876 1.097656v-100.769531c-.007812-22.054688-17.953124-40-40.007812-40zm-208 16h208c13.230469 0 24 10.769531 24 24v8h-256v-8c0-13.230469 10.769531-24 24-24zm208 464h-208c-13.230469 0-24-10.769531-24-24v-24h256v24c0 13.230469-10.769531 24-24 24zm24-64h-256v-352h256v82.921875c-2.886719 1.382813-5.753906 2.847656-8.527344 4.476563l-7.472656-3.734376v-67.664062h-224v320h224v-51.664062l7.472656-3.734376c2.785156 1.636719 5.640625 3.09375 8.527344 4.476563zm-48.609375-224.527344c-5.207031 8.871094-9.144531 18.328125-11.726563 28.199219l-19.664062 6.558594v43.53125l19.664062 6.558593c2.582032 9.871094 6.511719 19.328126 11.726563 28.199219l-9.292969 18.585938 25.902344 25.910156v34.984375h-192v-288h192v50.984375l-25.902344 25.894531zm76.167969-37.242187 4.449218-.964844 5.761719-17.265625h20.46875l5.761719 17.265625 4.449219.964844c11.125 2.417969 21.671875 6.808593 31.359375 13.035156l3.832031 2.46875 16.328125-8.167969 14.472656 14.472656-8.167968 16.320313 2.460937 3.832031c6.234375 9.6875 10.617187 20.242188 13.035156 31.367188l.964844 4.449218 17.265625 5.761719v20.46875l-17.265625 5.761719-.964844 4.449219c-2.417969 11.125-6.808593 21.679687-13.035156 31.367187l-2.460937 3.832032 8.167968 16.320312-14.472656 14.472656-16.328125-8.167968-3.832031 2.46875c-9.6875 6.226562-20.242188 10.617187-31.359375 13.035156l-4.449219.964844-5.769531 17.257812h-20.46875l-5.761719-17.265625-4.449219-.964844c-11.125-2.417969-21.671875-6.808593-31.359375-13.035156l-3.832031-2.46875-16.328125 8.167969-14.472656-14.472656 8.167968-16.320313-2.460937-3.832031c-6.234375-9.6875-10.617187-20.242188-13.035156-31.367188l-.964844-4.449218-17.265625-5.761719v-20.46875l17.265625-5.761719.964844-4.449219c2.417969-11.125 6.808593-21.679687 13.035156-31.367187l2.460937-3.832032-8.167968-16.320312 14.472656-14.472656 16.328125 8.167968 3.832031-2.46875c9.6875-6.21875 20.242188-10.609374 31.367188-13.027343zm-59.558594 93.769531c0 44.113281 35.886719 80 80 80s80-35.886719 80-80-35.886719-80-80-80-80 35.886719-80 80zm80-64c35.289062 0 64 28.710938 64 64s-28.710938 64-64 64-64-28.710938-64-64 28.710938-64 64-64zm0 96c17.648438 0 32-14.351562 32-32s-14.351562-32-32-32-32 14.351562-32 32 14.351562 32 32 32zm0-48c8.824219 0 16 7.175781 16 16s-7.175781 16-16 16-16-7.175781-16-16 7.175781-16 16-16zm-200 216h48v16h-48zm13.65625-269.65625 45.65625 45.65625h-115.3125v-16h76.6875l-18.34375-18.34375zm-69.65625 93.65625h115.3125l-45.65625 45.65625-11.3125-11.3125 18.34375-18.34375h-76.6875zm112-32v16h-16v-16zm-32 0v16h-16v-16zm-32 0v16h-16v-16zm0 0" fill="url(#a)" style="fill: rgb(212, 145, 20);"/></g></svg>